{
  "accessors": [
    {
      "bufferView": 2,
      "componentType": 5126,
      "count": 2900,
      "max": [
        0.37517639994621277,
        1.7906373739242554,
        0.3606208562850952
      ],
      "min": [
        -0.3751327693462372,
        -1.6611250638961792,
        -0.38968849182128906
      ],
      "type": "VEC3"
    },
    {
      "bufferView": 2,
      "byteOffset": 34800,
      "componentType": 5126,
      "count": 2900,
      "max": [
        0.9999887943267822,
        1.0,
        0.9999887943267822
      ],
      "min": [
        -0.9999887943267822,
        -1.0,
        -0.9999887943267822
      ],
      "type": "VEC3"
    },
    {
      "bufferView": 3,
      "componentType": 5126,
      "count": 2900,
      "max": [
        0.9999247193336487,
        1.0,
        0.99997478723526,
        1.0
      ],
      "min": [
        -0.9999939799308777,
        -1.0,
        -0.9999960660934448,
        -1.0
      ],
      "type": "VEC4"
    },
    {
      "bufferView": 1,
      "componentType": 5126,
      "count": 2900,
      "max": [
        0.9682488441467285,
        0.9832913279533386
      ],
      "min": [
        0.011659173294901848,
        0.023185953497886658
      ],
      "type": "VEC2"
    },
    {
      "bufferView": 1,
      "byteOffset": 23200,
      "componentType": 5126,
      "count": 2900,
      "max": [
        0.9682488441467285,
        0.9832913279533386
      ],
      "min": [
        0.011659173294901848,
        0.023185953497886658
      ],
      "type": "VEC2"
    },
    {
      "bufferView": 1,
      "byteOffset": 46400,
      "componentType": 5126,
      "count": 2900,
      "max": [
        0.9682488441467285,
        0.9832913279533386
      ],
      "min": [
        0.011659173294901848,
        0.023185953497886658
      ],
      "type": "VEC2"
    },
    {
      "bufferView": 0,
      "componentType": 5125,
      "count": 10398,
      "type": "SCALAR"
    }
  ],
  "asset": {
    "extras": {
      "author": "LucasPresoto (https://sketchfab.com/LucasPresoto)",
      "license": "CC-BY-4.0 (http://creativecommons.org/licenses/by/4.0/)",
      "source": "https://sketchfab.com/3d-models/greek-pillar-7b52ffb5ba9c441ba7d54e9dc6e18315",
      "title": "Greek Pillar"
    },
    "generator": "Sketchfab-12.66.0",
    "version": "2.0"
  },
  "bufferViews": [
    {
      "buffer": 0,
      "byteLength": 41592,
      "name": "floatBufferViews",
      "target": 34963
    },
    {
      "buffer": 0,
      "byteLength": 69600,
      "byteOffset": 41592,
      "byteStride": 8,
      "name": "floatBufferViews",
      "target": 34962
    },
    {
      "buffer": 0,
      "byteLength": 69600,
      "byteOffset": 111192,
      "byteStride": 12,
      "name": "floatBufferViews",
      "target": 34962
    },
    {
      "buffer": 0,
      "byteLength": 46400,
      "byteOffset": 180792,
      "byteStride": 16,
      "name": "floatBufferViews",
      "target": 34962
    }
  ],
  "buffers": [
    {
      "byteLength": 227192,
      "uri": "scene.bin"
    }
  ],
  "images": [
    {
      "uri": "textures/Pillar_baseColor.png"
    },
    {
      "uri": "textures/Pillar_metallicRoughness.png"
    },
    {
      "uri": "textures/Pillar_normal.png"
    }
  ],
  "materials": [
    {
      "doubleSided": true,
      "name": "Pillar",
      "normalTexture": {
        "index": 2
      },
      "pbrMetallicRoughness": {
        "baseColorTexture": {
          "index": 0
        },
        "metallicFactor": 0.0,
        "metallicRoughnessTexture": {
          "index": 1
        }
      }
    }
  ],
  "meshes": [
    {
      "name": "Pillar_Pillar_0",
      "primitives": [
        {
          "attributes": {
            "NORMAL": 1,
            "POSITION": 0,
            "TANGENT": 2,
            "TEXCOORD_0": 3,
            "TEXCOORD_1": 4,
            "TEXCOORD_2": 5
          },
          "indices": 6,
          "material": 0,
          "mode": 4
        }
      ]
    }
  ],
  "nodes": [
    {
      "children": [
        1
      ],
      "matrix": [
        1.0,
        0.0,
        0.0,
        0.0,
        0.0,
        2.220446049250313e-16,
        -1.0,
        0.0,
        0.0,
        1.0,
        2.220446049250313e-16,
        0.0,
        0.0,
        0.0,
        0.0,
        1.0
      ],
      "name": "Sketchfab_model"
    },
    {
      "children": [
        2
      ],
      "matrix": [
        1.0,
        0.0,
        0.0,
        0.0,
        0.0,
        0.0,
        1.0,
        0.0,
        0.0,
        -1.0,
        0.0,
        0.0,
        0.0,
        0.0,
        0.0,
        1.0
      ],
      "name": "5fc0ffa5fcef45719a1c3fe1616e1e21.fbx"
    },
    {
      "children": [
        3
      ],
      "name": "RootNode"
    },
    {
      "children": [
        4
      ],
      "matrix": [
        -0.9999999999999964,
        1.2246467991473515e-16,
        8.742278000372476e-08,
        0.0,
        -3.698906412640348e-15,
        0.999999999999999,
        -4.371138840920244e-08,
        0.0,
        -8.742278000372468e-08,
        -4.37113884092026e-08,
        -0.9999999999999956,
        0.0,
        -3.477597951889038,
        2.681670665740967,
        -0.5502986907958984,
        1.0
      ],
      "name": "Pillar"
    },
    {
      "mesh": 0,
      "name": "Pillar_Pillar_0"
    }
  ],
  "samplers": [
    {
      "magFilter": 9729,
      "minFilter": 9987,
      "wrapS": 10497,
      "wrapT": 10497
    }
  ],
  "scene": 0,
  "scenes": [
    {
      "name": "Sketchfab_Scene",
      "nodes": [
        0
      ]
    }
  ],
  "textures": [
    {
      "sampler": 0,
      "source": 0
    },
    {
      "sampler": 0,
      "source": 1
    },
    {
      "sampler": 0,
      "source": 2
    }
  ]
}
